<svg xmlns="http://www.w3.org/2000/svg" width="200" height="200" viewBox="0 0 200 200">
  <rect width="200" height="200" fill="#f8f9fa"/>
  <g transform="translate(50, 50)">
    <path d="M80 40H20c-2.2 0-4-1.8-4-4V4c0-2.2 1.8-4 4-4h60c2.2 0 4 1.8 4 4v32c0 2.2-1.8 4-4 4z" fill="#dee2e6"/>
    <path d="M70 50H30c-1.1 0-2-.9-2-2v-2c0-1.1.9-2 2-2h40c1.1 0 2 .9 2 2v2c0 1.1-.9 2-2 2z" fill="#adb5bd"/>
    <path d="M85 100H15c-2.8 0-5-2.2-5-5V60c0-2.8 2.2-5 5-5h70c2.8 0 5 2.2 5 5v35c0 2.8-2.2 5-5 5z" fill="#dee2e6"/>
    <circle cx="50" cy="77.5" r="12.5" fill="#adb5bd"/>
    <rect x="25" y="60" width="10" height="5" rx="1" fill="#adb5bd"/>
    <rect x="65" y="60" width="10" height="5" rx="1" fill="#adb5bd"/>
    <rect x="25" y="90" width="50" height="5" rx="1" fill="#adb5bd"/>
  </g>
  <text x="100" y="170" font-family="Arial" font-size="14" text-anchor="middle" fill="#6c757d">Electronics</text>
</svg>